<svg width="322" height="106" viewBox="0 0 322 106" fill="none" xmlns="http://www.w3.org/2000/svg">
	<g clip-path="url(#clip0_377_3401)">
		<path d="M61.1248 23.4632C59.2506 21.4796 55.9706 21.1599 53.4021 22.1238C48.7848 23.7742 46.7648 27.6461 41.2349 25.1387C40.5716 24.8806 39.914 24.5301 39.2024 24.3645C36.4399 23.8311 36.0034 25.677 36.6678 27.6548C37.2925 29.8878 38.6472 31.8762 39.3646 34.0774C40.8545 38.3257 41.4213 42.9747 40.644 47.4252C40.4181 48.4873 40.2665 49.6467 39.551 50.5451C38.9504 51.2634 37.754 51.6033 36.8869 51.0785C35.7592 50.4228 34.9616 49.3578 33.7237 48.8465C31.4981 47.9683 30.8907 50.8195 30.7826 52.2427C30.3626 57.5319 31.9007 62.7836 34.0578 67.6589C36.8589 73.8417 41.2243 79.675 47.5044 83.3418C48.1948 83.7308 48.9373 84.1256 49.7754 84.1256C49.7996 84.1256 49.8237 84.1256 49.8469 84.1256C50.8308 84.1256 51.4681 83.3736 51.3445 82.504C51.1929 81.1175 50.4185 79.856 49.8343 78.5869C48.9547 76.8383 48.2353 75.157 47.6966 73.238C46.3409 68.1461 46.6972 62.7673 48.301 57.7496C49.9357 52.5575 53.3635 48.002 56.8309 43.667C59.6224 40.0696 62.6977 36.3855 63.5552 31.9513C64.2224 28.973 63.2838 25.7781 61.1229 23.4603L61.1248 23.4632Z" fill="url(#paint0_linear_377_3401)"/>
		<path d="M59.1753 23.3486C57.4266 21.5287 54.3677 21.236 51.9711 22.12C47.6637 23.6346 45.7799 27.1858 40.6218 24.8854C40.0028 24.6486 39.3897 24.327 38.7263 24.1758C36.1492 23.6857 35.7417 25.3794 36.3616 27.1935C36.9449 29.2426 38.2078 31.0664 38.8779 33.0856C40.2684 36.9834 40.7965 41.2472 40.0714 45.3309C39.8609 46.3054 39.7199 47.3684 39.0527 48.1936C38.4927 48.8523 37.3765 49.1643 36.5683 48.6828C35.5158 48.081 34.7723 47.1036 33.6175 46.6357C33.1888 46.4691 32.8247 46.4488 32.5158 46.5326C32.2744 46.5981 31.2731 46.9476 30.8743 49.7516C29.8759 56.7712 33.0179 65.0032 33.0179 65.0032C34.9577 70.0854 37.0974 73.2254 37.8361 74.2712C40.1467 77.5431 42.129 79.2773 42.6939 79.7588C44.709 81.4795 49.1951 84.7794 50.3625 83.9388C51.6148 83.0365 47.1664 78.7121 45.6254 71.109C44.0438 63.3036 46.477 56.7327 47.2176 54.805C48.9991 50.1705 51.6332 46.3737 55.1739 41.8856C57.7771 38.5848 60.6468 35.2049 61.4463 31.1376C62.0691 28.4049 61.1933 25.4747 59.1772 23.3486H59.1753Z" fill="url(#paint1_linear_377_3401)"/>
		<path d="M44.7448 19.3843C45.1127 19.4296 45.4835 19.4537 45.8542 19.4537C48.2015 19.4537 50.5479 18.5495 52.3303 17.0387C55.5756 14.2944 56.3201 9.4529 54.8215 5.60126C51.8929 -1.56279 43.027 -1.88922 39.3183 4.8136C38.0485 7.02059 37.502 9.68977 38.0437 12.1962C38.7824 15.708 40.953 18.8788 44.7448 19.3834V19.3843Z" fill="url(#paint2_linear_377_3401)"/>
		<path fill-rule="evenodd" clip-rule="evenodd" d="M68.9363 47.1845C66.0116 44.6896 66.0116 40.6444 68.9363 38.1505C71.86 35.6556 76.601 35.6556 79.5248 38.1505C88.6215 45.9116 93.1693 56.0837 93.1693 66.2549H93.1404C93.1404 76.4416 88.6012 86.6157 79.5248 94.3594C70.4281 102.12 58.5052 106.001 46.5842 106.001V105.976C34.6458 105.976 22.7219 102.103 13.6445 94.3594C4.54786 86.5974 0 76.4252 0 66.254H0.0289673C0.0289673 56.0683 4.56814 45.8942 13.6445 38.1505C16.5693 35.6556 21.3102 35.6556 24.234 38.1505C27.1578 40.6454 27.1578 44.6896 24.234 47.1845C18.0427 52.4661 14.9471 59.3682 14.9471 66.254H14.9761C14.9761 73.1561 18.062 80.0592 24.233 85.3244C30.4243 90.606 38.5129 93.2482 46.5842 93.2482V93.2232C54.6747 93.2232 62.7643 90.5896 68.9363 85.3244C75.1275 80.0429 78.2232 73.1417 78.2232 66.2549H78.1942C78.1942 59.3528 75.1082 52.4507 68.9372 47.1855" fill="url(#paint3_linear_377_3401)"/>
		<mask id="mask0_377_3401" style="mask-type:luminance" maskUnits="userSpaceOnUse" x="0" y="36" width="94" height="71">
			<path d="M68.9363 47.1845C66.0116 44.6896 66.0116 40.6444 68.9363 38.1505C71.86 35.6556 76.601 35.6556 79.5248 38.1505C88.6215 45.9116 93.1693 56.0837 93.1693 66.2549H93.1404C93.1404 76.4416 88.6012 86.6157 79.5248 94.3594C70.4281 102.12 58.5052 106.001 46.5842 106.001V105.976C34.6458 105.976 22.7219 102.103 13.6445 94.3594C4.54786 86.5974 0 76.4252 0 66.254H0.0289673C0.0289673 56.0683 4.56814 45.8942 13.6445 38.1505C16.5693 35.6556 21.3102 35.6556 24.234 38.1505C27.1578 40.6454 27.1578 44.6896 24.234 47.1845C18.0427 52.4661 14.9471 59.3682 14.9471 66.254H14.9761C14.9761 73.1561 18.062 80.0592 24.233 85.3244C30.4243 90.606 38.5129 93.2482 46.5842 93.2482V93.2232C54.6747 93.2232 62.7643 90.5896 68.9363 85.3244C75.1275 80.0429 78.2232 73.1417 78.2232 66.2549H78.1942C78.1942 59.3528 75.1082 52.4507 68.9372 47.1855" fill="white"/>
		</mask>
		<g mask="url(#mask0_377_3401)">
			<path d="M93.1703 35.6546H0V106H93.1703V35.6546Z" fill="url(#paint4_linear_377_3401)"/>
		</g>
		<path fill-rule="evenodd" clip-rule="evenodd" d="M13.6445 81.5806C6.48094 75.469 2.13778 67.8611 0.615071 59.9354C0.224979 62.0268 0.0289673 64.1404 0.0289673 66.253H0C0 76.4242 4.54786 86.5964 13.6445 94.3575C22.7219 102.102 34.6458 105.974 46.5842 105.974V105.999C58.5052 105.999 70.4281 102.119 79.5248 94.3575C88.6012 86.6138 93.1404 76.4396 93.1404 66.253H93.1693C93.1693 64.0923 92.9646 61.9315 92.5542 59.7938C91.0615 67.7792 86.7183 75.4421 79.5248 81.5797C70.4281 89.3407 58.5052 93.2222 46.5842 93.2222V93.2472C34.7047 93.2472 22.5761 89.2011 13.6445 81.5797" fill="url(#paint5_linear_377_3401)"/>
		<mask id="mask1_377_3401" style="mask-type:luminance" maskUnits="userSpaceOnUse" x="0" y="59" width="94" height="47">
			<path d="M13.6445 81.5806C6.48094 75.469 2.13778 67.8611 0.615071 59.9354C0.224979 62.0268 0.0289673 64.1404 0.0289673 66.253H0C0 76.4242 4.54786 86.5964 13.6445 94.3575C22.7219 102.102 34.6458 105.974 46.5842 105.974V105.999C58.5052 105.999 70.4281 102.119 79.5248 94.3575C88.6012 86.6138 93.1404 76.4396 93.1404 66.253H93.1693C93.1693 64.0923 92.9646 61.9315 92.5542 59.7938C91.0615 67.7792 86.7183 75.4421 79.5248 81.5797C70.4281 89.3407 58.5052 93.2222 46.5842 93.2222V93.2472C34.7047 93.2472 22.5761 89.2011 13.6445 81.5797" fill="white"/>
		</mask>
		<g mask="url(#mask1_377_3401)">
			<path d="M93.1703 59.7949H0V106H93.1703V59.7949Z" fill="url(#paint6_linear_377_3401)"/>
		</g>
		<path fill-rule="evenodd" clip-rule="evenodd" d="M19.4487 80.0977C4.62225 73.1436 0.615112 59.9363 0.615112 59.9363C2.13782 67.8611 6.48098 75.469 13.6446 81.5816C22.5762 89.2021 34.7047 93.2492 46.5842 93.2492C38.513 93.2492 30.4244 90.6079 24.2331 85.3254C22.3521 83.7202 20.757 81.9619 19.4487 80.0987" fill="url(#paint7_linear_377_3401)"/>
		<path fill-rule="evenodd" clip-rule="evenodd" d="M73.7207 80.0977C88.5472 73.1436 92.5543 59.9363 92.5543 59.9363C91.0316 67.8611 86.6884 75.469 79.5248 81.5816C70.5933 89.2021 58.4647 93.2492 46.5842 93.2492C54.6555 93.2492 62.7441 90.6079 68.9363 85.3254C70.8173 83.7202 72.4124 81.9619 73.7207 80.0987" fill="url(#paint8_linear_377_3401)"/>
		<path d="M105.485 63.5068H104.476C103.723 63.5068 103.108 62.8934 103.108 62.1424V26.7593C103.108 26.0082 103.723 25.3948 104.476 25.3948H112.716C115.936 25.3948 118.673 27.3572 119.696 30.3952L119.708 30.428L120.359 32.3846L122.33 38.3152C122.336 38.3363 122.344 38.3556 122.349 38.3787L125.626 48.2514L127.713 54.5354C127.734 54.5989 127.758 54.6586 127.781 54.7193C128.156 55.6042 128.996 56.1637 129.975 56.1637H130.439C131.417 56.1637 132.259 55.6032 132.631 54.7193C132.656 54.6586 132.681 54.5989 132.7 54.5354L134.787 48.2514L138.066 38.3787C138.072 38.3566 138.078 38.3363 138.085 38.3152L140.056 32.3846L140.706 30.428L140.718 30.3952C141.742 27.3572 144.478 25.3948 147.696 25.3948H155.937C156.691 25.3948 157.306 26.0082 157.306 26.7593V62.1424C157.306 62.8934 156.691 63.5068 155.937 63.5068H151.302C150.549 63.5068 149.933 62.8934 149.933 62.1424V32.7852H148.898C147.998 32.9007 147.573 33.2965 147.066 34.6619C147.007 34.8208 146.946 34.995 146.884 35.1828L144.836 41.3435C144.803 41.46 144.768 41.5765 144.729 41.694L139.151 58.4737C139.113 58.5902 139.071 58.7038 139.027 58.8174C138.176 61.0302 136.392 62.6267 134.189 63.2343C133.544 63.4144 132.864 63.5068 132.16 63.5068H128.255C127.551 63.5068 126.872 63.4144 126.227 63.2343C124.023 62.6267 122.24 61.0302 121.386 58.8174C121.344 58.7038 121.302 58.5902 121.264 58.4737L115.685 41.694C115.646 41.5765 115.611 41.46 115.578 41.3435L113.528 35.1828C113.467 34.995 113.406 34.8208 113.348 34.6619C112.841 33.2955 112.414 32.8998 111.515 32.7852H110.48V62.1424C110.48 62.8934 109.865 63.5068 109.112 63.5068H105.485Z" fill="#231F20"/>
		<path d="M165.501 32.6956L163.301 32.6812C162.548 32.6821 161.933 32.0687 161.933 31.3177V26.6957C161.951 26.0573 162.486 25.4661 163.17 25.3996L167.304 25.3939C169.96 25.3996 172.303 26.7053 173.672 29.0693L177.023 34.8544L178.931 38.1505L179.462 39.0672C180.117 40.2005 181.245 40.8486 182.557 40.8486H188.404C189.716 40.8486 190.844 40.1996 191.499 39.0672L192.031 38.1505L193.939 34.8544L197.289 29.0693C198.657 26.7053 200.999 25.3996 203.657 25.3939L207.791 25.3996C208.475 25.4661 209.01 26.0563 209.029 26.6957V31.3177C209.029 32.0687 208.413 32.6821 207.66 32.6812L205.46 32.6956C203.853 32.8246 203.121 33.697 202.451 34.8564L200.543 38.1524L200.519 38.1929L198.707 41.3223L198.102 42.3671L196.873 44.4893L196.849 44.5317C195.496 46.8677 193.175 48.2042 190.471 48.2042H189.168V62.1423C189.168 62.8934 188.553 63.5068 187.799 63.5068H183.164C182.41 63.5068 181.795 62.8934 181.795 62.1423V48.2042H180.492C177.789 48.2042 175.467 46.8677 174.114 44.5317L174.09 44.4893L172.861 42.3671L172.256 41.3223L170.445 38.1929L170.421 38.1524L168.512 34.8564C167.842 33.697 167.11 32.8246 165.503 32.6956H165.501Z" fill="#231F20"/>
		<path d="M219.2 31.3822V26.7593C219.2 26.0082 219.815 25.3948 220.568 25.3948H260.435C261.188 25.3948 261.803 26.0082 261.803 26.7593V31.3822C261.803 32.1342 261.188 32.7467 260.435 32.7467H220.568C219.815 32.7467 219.2 32.1342 219.2 31.3822ZM226.571 51.9654V62.1424C226.572 62.8944 225.957 63.5068 225.204 63.5068H220.568C219.815 63.5068 219.2 62.8944 219.2 62.1424V50.495C219.2 45.1499 223.589 40.7744 228.949 40.7744H256.401C257.155 40.7744 257.769 41.3878 257.769 42.1389V46.7618C257.769 47.5138 257.155 48.1262 256.401 48.1262H238.729L237.017 48.1253H230.424C228.303 48.1253 226.572 49.8518 226.572 51.9654H226.571Z" fill="#623CF4"/>
		<path d="M278.649 32.7476C277.895 32.7476 277.28 32.1352 277.28 31.3832V26.7602C277.28 26.0092 277.895 25.3958 278.649 25.3958H320.631C321.385 25.3958 321.999 26.0092 321.999 26.7602V31.3832C321.999 32.1352 321.385 32.7476 320.631 32.7476H303.326V62.1433C303.326 62.8953 302.712 63.5078 301.957 63.5078H297.323C296.569 63.5078 295.955 62.8953 295.955 62.1433V32.7476H278.649Z" fill="url(#paint9_linear_377_3401)"/>
		<path d="M266.037 50.3842V53.5917V53.9326V56.8001H268.271V53.9326H270.956V56.8001H273.233V53.9326V53.5917H270.956V50.3842H268.271H266.037Z" fill="url(#paint10_linear_377_3401)"/>
		<path d="M270.957 57.14H268.271V59.9787H270.957V57.14Z" fill="url(#paint11_linear_377_3401)"/>
		<path d="M273.233 63.528H270.956V66.7354H273.233V63.528Z" fill="url(#paint12_linear_377_3401)"/>
		<path d="M266.037 60.4245V63.0446V63.528H268.271V63.3489V60.7606V60.3484H266.037V60.4245Z" fill="url(#paint13_linear_377_3401)"/>
		<path d="M272.55 25.884H266.863C266.408 26.0948 266.055 26.4627 266.037 26.9894V43.9963H268.27V46.8629H270.956V50.3833H273.233V26.6466C273.113 26.2884 272.89 26.0419 272.55 25.884Z" fill="url(#paint14_linear_377_3401)"/>
		<path d="M104.247 73.1445H111.481V75.1734H107.187V76.8219H110.856V78.7285H107.187V82.5868H104.247V73.1436V73.1445Z" fill="black"/>
		<path d="M112.98 73.1446H115.609V74.9288H112.98V73.1446ZM112.98 75.7463H115.609V82.5869H112.98V75.7463Z" fill="black"/>
		<path d="M120.46 73.1446V75.7473H121.907V77.6664H120.46V80.09C120.46 80.3818 120.488 80.5744 120.544 80.6687C120.63 80.8141 120.781 80.8873 120.996 80.8873C121.19 80.8873 121.462 80.8315 121.81 80.7198L122.004 82.5291C121.354 82.6706 120.747 82.7419 120.183 82.7419C119.528 82.7419 119.047 82.6581 118.737 82.4906C118.427 82.323 118.197 82.0688 118.049 81.7279C117.9 81.3871 117.826 80.8344 117.826 80.0717V77.6654H116.858V75.7463H117.826V74.4907L120.461 73.1446H120.46Z" fill="black"/>
		<path d="M126.79 73.1446H130.04L131.948 76.3299L133.86 73.1446H137.092L133.411 78.6322V82.5869H130.478V78.6322L126.79 73.1446Z" fill="black"/>
		<path d="M136.414 79.1868C136.414 78.143 136.767 77.2831 137.473 76.6072C138.179 75.9312 139.133 75.5923 140.334 75.5923C141.708 75.5923 142.745 75.9899 143.447 76.7843C144.011 77.4247 144.293 78.2123 144.293 79.1483C144.293 80.2007 143.943 81.0625 143.243 81.7347C142.543 82.4068 141.576 82.7428 140.34 82.7428C139.237 82.7428 138.346 82.4636 137.666 81.9051C136.831 81.2137 136.413 80.3076 136.413 79.1868H136.414ZM139.05 79.1801C139.05 79.7896 139.173 80.2412 139.421 80.5329C139.669 80.8247 139.98 80.9711 140.355 80.9711C140.73 80.9711 141.045 80.8276 141.289 80.5397C141.532 80.2518 141.654 79.7905 141.654 79.155C141.654 78.5628 141.531 78.1209 141.286 77.831C141.041 77.5412 140.736 77.3958 140.375 77.3958C139.992 77.3958 139.675 77.5431 139.426 77.8368C139.176 78.1314 139.052 78.5792 139.052 79.1801H139.05Z" fill="black"/>
		<path d="M152.788 82.5878H150.333V81.4795C149.967 81.9349 149.598 82.2585 149.226 82.452C148.853 82.6456 148.395 82.7419 147.854 82.7419C147.131 82.7419 146.563 82.5262 146.151 82.0948C145.74 81.6634 145.534 80.999 145.534 80.1016V75.7473H148.176V79.5094C148.176 79.9388 148.255 80.2441 148.415 80.4241C148.574 80.6042 148.798 80.6947 149.087 80.6947C149.401 80.6947 149.658 80.5744 149.858 80.3336C150.058 80.0929 150.159 79.6615 150.159 79.0385V75.7473H152.788V82.5878Z" fill="black"/>
		<path d="M154.409 75.7463H156.87V76.8672C157.107 76.3818 157.351 76.0477 157.603 75.8657C157.855 75.6837 158.166 75.5923 158.537 75.5923C158.908 75.5923 159.349 75.7126 159.809 75.9533L158.995 77.8214C158.685 77.6924 158.44 77.6278 158.26 77.6278C157.915 77.6278 157.648 77.7694 157.459 78.0535C157.188 78.4531 157.053 79.2003 157.053 80.2951V82.5878H154.411V75.7473L154.409 75.7463Z" fill="black"/>
		<path d="M164.33 79.4632L167.114 79.2889C167.174 79.7395 167.297 80.0833 167.482 80.3192C167.783 80.7015 168.214 80.8921 168.774 80.8921C169.191 80.8921 169.514 80.7949 169.739 80.5994C169.965 80.4039 170.078 80.1776 170.078 79.9196C170.078 79.6615 169.97 79.4555 169.756 79.2629C169.541 79.0693 169.041 78.8873 168.257 78.715C166.974 78.4271 166.059 78.0448 165.512 77.5682C164.961 77.0915 164.686 76.4839 164.686 75.7454C164.686 75.2601 164.827 74.8017 165.109 74.3703C165.391 73.9389 165.814 73.6 166.381 73.3525C166.947 73.106 167.723 72.9818 168.71 72.9818C169.92 72.9818 170.843 73.2062 171.478 73.6549C172.114 74.1036 172.491 74.8171 172.612 75.7964L169.854 75.9572C169.781 75.5316 169.627 75.2225 169.393 75.0299C169.158 74.8364 168.834 74.7401 168.42 74.7401C168.081 74.7401 167.824 74.8123 167.652 74.9558C167.48 75.0993 167.393 75.2745 167.393 75.4806C167.393 75.6308 167.465 75.7666 167.607 75.886C167.745 76.0102 168.072 76.1267 168.589 76.2336C169.868 76.508 170.783 76.7863 171.337 77.0674C171.89 77.3486 172.292 77.6972 172.544 78.1141C172.796 78.5311 172.922 78.9971 172.922 79.5123C172.922 80.1179 172.754 80.6764 172.418 81.1868C172.082 81.6981 171.613 82.0852 171.01 82.349C170.408 82.6128 169.648 82.7448 168.73 82.7448C167.12 82.7448 166.005 82.4357 165.385 81.8175C164.765 81.1993 164.413 80.4136 164.332 79.4603L164.33 79.4632Z" fill="black"/>
		<path d="M177.391 73.1446V75.7473H178.837V77.6664H177.391V80.09C177.391 80.3818 177.419 80.5744 177.475 80.6687C177.561 80.8141 177.711 80.8873 177.927 80.8873C178.121 80.8873 178.392 80.8315 178.741 80.7198L178.935 82.5291C178.285 82.6706 177.677 82.7419 177.114 82.7419C176.459 82.7419 175.977 82.6581 175.667 82.4906C175.357 82.323 175.127 82.0688 174.98 81.7279C174.831 81.3871 174.757 80.8344 174.757 80.0717V77.6654H173.788V75.7463H174.757V74.4907L177.392 73.1446H177.391Z" fill="black"/>
		<path d="M179.335 75.7463H182.109L183.524 80.2999L184.838 75.7463H187.429L184.707 83.0558C184.397 83.8897 184.08 84.452 183.758 84.7447C183.301 85.1569 182.607 85.3639 181.672 85.3639C181.293 85.3639 180.707 85.3119 179.916 85.2088L179.709 83.3793C180.087 83.4997 180.509 83.5594 180.974 83.5594C181.284 83.5594 181.534 83.4881 181.726 83.3466C181.917 83.205 182.08 82.9508 182.214 82.5859L179.335 75.7463Z" fill="black"/>
		<path d="M188.262 73.1446H190.897V82.5878H188.262V73.1446Z" fill="black"/>
		<path d="M200.192 79.8175H194.921C194.968 80.2383 195.082 80.5522 195.263 80.7583C195.517 81.0548 195.848 81.2031 196.258 81.2031C196.517 81.2031 196.762 81.1386 196.995 81.0096C197.137 80.9277 197.289 80.7843 197.453 80.5782L200.044 80.816C199.648 81.5036 199.17 81.9956 198.61 82.2941C198.05 82.5926 197.248 82.7419 196.201 82.7419C195.292 82.7419 194.578 82.6138 194.056 82.3586C193.535 82.1035 193.103 81.6971 192.761 81.1415C192.419 80.5849 192.248 79.9321 192.248 79.1801C192.248 78.1103 192.592 77.2456 193.278 76.5841C193.965 75.9225 194.913 75.5923 196.124 75.5923C197.106 75.5923 197.881 75.7405 198.449 76.0371C199.017 76.3337 199.45 76.7632 199.747 77.3255C200.045 77.8878 200.194 78.6206 200.194 79.5219V79.8185L200.192 79.8175ZM197.518 78.5619C197.466 78.0554 197.33 77.6924 197.108 77.4728C196.885 77.2533 196.594 77.1445 196.233 77.1445C195.815 77.1445 195.482 77.3101 195.231 77.6404C195.072 77.8464 194.971 78.1536 194.928 78.5619H197.518Z" fill="black"/>
		<path d="M205.307 78.1295H209.131V80.1584H205.307V78.1295Z" fill="black"/>
		<path d="M214.815 73.1445H222.05V75.1734H217.755V76.8219H221.424V78.7285H217.755V82.5868H214.815V73.1436V73.1445Z" fill="black"/>
		<path d="M223.548 73.1446H226.177V74.9288H223.548V73.1446ZM223.548 75.7463H226.177V82.5869H223.548V75.7463Z" fill="black"/>
		<path d="M231.028 73.1446V75.7473H232.475V77.6664H231.028V80.09C231.028 80.3818 231.056 80.5744 231.112 80.6687C231.198 80.8141 231.349 80.8873 231.564 80.8873C231.758 80.8873 232.03 80.8315 232.378 80.7198L232.572 82.5291C231.922 82.6706 231.315 82.7419 230.751 82.7419C230.097 82.7419 229.615 82.6581 229.305 82.4906C228.995 82.323 228.765 82.0688 228.617 81.7279C228.469 81.3871 228.394 80.8344 228.394 80.0717V77.6654H227.426V75.7463H228.394V74.4907L231.029 73.1446H231.028Z" fill="black"/>
		<path d="M237.358 73.1446H240.608L242.516 76.3299L244.428 73.1446H247.66L243.979 78.6322V82.5869H241.046V78.6322L237.358 73.1446Z" fill="black"/>
		<path d="M246.982 79.1868C246.982 78.143 247.336 77.2831 248.042 76.6072C248.747 75.9312 249.701 75.5923 250.903 75.5923C252.277 75.5923 253.314 75.9899 254.016 76.7843C254.58 77.4247 254.861 78.2123 254.861 79.1483C254.861 80.2007 254.512 81.0625 253.812 81.7347C253.112 82.4068 252.144 82.7428 250.908 82.7428C249.806 82.7428 248.915 82.4636 248.235 81.9051C247.4 81.2137 246.981 80.3076 246.981 79.1868H246.982ZM249.617 79.1801C249.617 79.7896 249.741 80.2412 249.989 80.5329C250.236 80.8247 250.548 80.9711 250.923 80.9711C251.298 80.9711 251.613 80.8276 251.857 80.5397C252.1 80.2518 252.222 79.7905 252.222 79.155C252.222 78.5628 252.099 78.1209 251.854 77.831C251.608 77.5412 251.304 77.3958 250.943 77.3958C250.56 77.3958 250.243 77.5431 249.994 77.8368C249.744 78.1314 249.619 78.5792 249.619 79.1801H249.617Z" fill="black"/>
		<path d="M263.356 82.5878H260.901V81.4795C260.535 81.9349 260.165 82.2585 259.794 82.452C259.421 82.6456 258.963 82.7419 258.422 82.7419C257.698 82.7419 257.131 82.5262 256.719 82.0948C256.308 81.6634 256.102 80.999 256.102 80.1016V75.7473H258.744V79.5094C258.744 79.9388 258.823 80.2441 258.983 80.4241C259.142 80.6042 259.366 80.6947 259.655 80.6947C259.968 80.6947 260.226 80.5744 260.426 80.3336C260.626 80.0929 260.726 79.6615 260.726 79.0385V75.7473H263.356V82.5878Z" fill="black"/>
		<path d="M264.977 75.7463H267.438V76.8672C267.675 76.3818 267.919 76.0477 268.171 75.8657C268.423 75.6837 268.734 75.5923 269.105 75.5923C269.476 75.5923 269.917 75.7126 270.378 75.9533L269.564 77.8214C269.254 77.6924 269.008 77.6278 268.828 77.6278C268.483 77.6278 268.217 77.7694 268.027 78.0535C267.756 78.4531 267.621 79.2003 267.621 80.2951V82.5878H264.979V75.7473L264.977 75.7463Z" fill="black"/>
		<path d="M275.409 73.1446H278.335V80.2624H282.901V82.5878H275.408V73.1446H275.409Z" fill="black"/>
		<path d="M284.154 73.1446H286.784V74.9288H284.154V73.1446ZM284.154 75.7463H286.784V82.5869H284.154V75.7463Z" fill="black"/>
		<path d="M291.389 75.7463H292.643V77.6654H291.389V82.5869H288.754V77.6654H287.772V75.7463H288.754V75.4372C288.754 75.158 288.784 74.8508 288.845 74.5157C288.905 74.1806 289.018 73.9072 289.184 73.6944C289.35 73.4816 289.582 73.3102 289.881 73.1792C290.18 73.0483 290.619 72.9828 291.195 72.9828C291.656 72.9828 292.326 73.0367 293.204 73.1436L292.913 74.7285C292.598 74.6765 292.344 74.6515 292.151 74.6515C291.915 74.6515 291.745 74.691 291.641 74.7709C291.538 74.8508 291.465 74.976 291.421 75.1474C291.4 75.2418 291.389 75.4421 291.389 75.7463Z" fill="black"/>
		<path d="M301 79.8175H295.729C295.776 80.2383 295.89 80.5522 296.071 80.7583C296.325 81.0548 296.657 81.2031 297.066 81.2031C297.325 81.2031 297.57 81.1386 297.803 81.0096C297.945 80.9277 298.097 80.7843 298.261 80.5782L300.852 80.816C300.456 81.5036 299.978 81.9956 299.418 82.2941C298.858 82.5926 298.056 82.7419 297.009 82.7419C296.1 82.7419 295.386 82.6138 294.864 82.3586C294.343 82.1035 293.911 81.6971 293.57 81.1415C293.227 80.5849 293.056 79.9321 293.056 79.1801C293.056 78.1103 293.4 77.2456 294.086 76.5841C294.773 75.9225 295.721 75.5923 296.932 75.5923C297.914 75.5923 298.689 75.7405 299.257 76.0371C299.826 76.3337 300.258 76.7632 300.556 77.3255C300.853 77.8878 301.002 78.6206 301.002 79.5219V79.8185L301 79.8175ZM298.326 78.5619C298.274 78.0554 298.138 77.6924 297.916 77.4728C297.694 77.2533 297.402 77.1445 297.041 77.1445C296.623 77.1445 296.29 77.3101 296.04 77.6404C295.88 77.8464 295.779 78.1536 295.736 78.5619H298.326Z" fill="black"/>
	</g>
	<defs>
		<linearGradient id="paint0_linear_377_3401" x1="30.714" y1="52.8628" x2="63.7695" y2="52.8628" gradientUnits="userSpaceOnUse">
			<stop stop-color="#623CF4"/>
			<stop offset="0.24" stop-color="#613EF4"/>
			<stop offset="0.39" stop-color="#5D47F4"/>
			<stop offset="0.51" stop-color="#5855F5"/>
			<stop offset="0.62" stop-color="#506AF6"/>
			<stop offset="0.72" stop-color="#4684F8"/>
			<stop offset="0.82" stop-color="#3AA5F9"/>
			<stop offset="0.91" stop-color="#2BCCFC"/>
			<stop offset="0.99" stop-color="#1AF8FE"/>
			<stop offset="1" stop-color="#18FFFF"/>
		</linearGradient>
		<linearGradient id="paint1_linear_377_3401" x1="30.6763" y1="52.856" x2="61.6414" y2="52.856" gradientUnits="userSpaceOnUse">
			<stop stop-color="#623CF4"/>
			<stop offset="0.24" stop-color="#613EF4"/>
			<stop offset="0.39" stop-color="#5D47F4"/>
			<stop offset="0.51" stop-color="#5855F5"/>
			<stop offset="0.62" stop-color="#506AF6"/>
			<stop offset="0.72" stop-color="#4684F8"/>
			<stop offset="0.82" stop-color="#3AA5F9"/>
			<stop offset="0.91" stop-color="#2BCCFC"/>
			<stop offset="0.99" stop-color="#1AF8FE"/>
			<stop offset="1" stop-color="#18FFFF"/>
		</linearGradient>
		<linearGradient id="paint2_linear_377_3401" x1="37.8361" y1="9.72636" x2="55.5641" y2="9.72636" gradientUnits="userSpaceOnUse">
			<stop stop-color="#623CF4"/>
			<stop offset="0.24" stop-color="#613EF4"/>
			<stop offset="0.39" stop-color="#5D47F4"/>
			<stop offset="0.51" stop-color="#5855F5"/>
			<stop offset="0.62" stop-color="#506AF6"/>
			<stop offset="0.72" stop-color="#4684F8"/>
			<stop offset="0.82" stop-color="#3AA5F9"/>
			<stop offset="0.91" stop-color="#2BCCFC"/>
			<stop offset="0.99" stop-color="#1AF8FE"/>
			<stop offset="1" stop-color="#18FFFF"/>
		</linearGradient>
		<linearGradient id="paint3_linear_377_3401" x1="0" y1="71.1398" x2="93.1703" y2="71.1398" gradientUnits="userSpaceOnUse">
			<stop stop-color="#623CF4"/>
			<stop offset="0.24" stop-color="#613EF4"/>
			<stop offset="0.39" stop-color="#5D47F4"/>
			<stop offset="0.51" stop-color="#5855F5"/>
			<stop offset="0.62" stop-color="#506AF6"/>
			<stop offset="0.72" stop-color="#4684F8"/>
			<stop offset="0.82" stop-color="#3AA5F9"/>
			<stop offset="0.91" stop-color="#2BCCFC"/>
			<stop offset="0.99" stop-color="#1AF8FE"/>
			<stop offset="1" stop-color="#18FFFF"/>
		</linearGradient>
		<linearGradient id="paint4_linear_377_3401" x1="46.5851" y1="115.056" x2="46.5851" y2="38.6416" gradientUnits="userSpaceOnUse">
			<stop stop-color="#623CF4"/>
			<stop offset="0.24" stop-color="#613EF4"/>
			<stop offset="0.39" stop-color="#5D47F4"/>
			<stop offset="0.51" stop-color="#5855F5"/>
			<stop offset="0.62" stop-color="#506AF6"/>
			<stop offset="0.72" stop-color="#4684F8"/>
			<stop offset="0.82" stop-color="#3AA5F9"/>
			<stop offset="0.91" stop-color="#2BCCFC"/>
			<stop offset="0.99" stop-color="#1AF8FE"/>
			<stop offset="1" stop-color="#18FFFF"/>
		</linearGradient>
		<linearGradient id="paint5_linear_377_3401" x1="0" y1="82.8979" x2="93.1703" y2="82.8979" gradientUnits="userSpaceOnUse">
			<stop stop-color="#623CF4"/>
			<stop offset="0.24" stop-color="#613EF4"/>
			<stop offset="0.39" stop-color="#5D47F4"/>
			<stop offset="0.51" stop-color="#5855F5"/>
			<stop offset="0.62" stop-color="#506AF6"/>
			<stop offset="0.72" stop-color="#4684F8"/>
			<stop offset="0.82" stop-color="#3AA5F9"/>
			<stop offset="0.91" stop-color="#2BCCFC"/>
			<stop offset="0.99" stop-color="#1AF8FE"/>
			<stop offset="1" stop-color="#18FFFF"/>
		</linearGradient>
		<linearGradient id="paint6_linear_377_3401" x1="46.5851" y1="125.764" x2="46.5851" y2="64.2329" gradientUnits="userSpaceOnUse">
			<stop stop-color="#623CF4"/>
			<stop offset="0.24" stop-color="#613EF4"/>
			<stop offset="0.39" stop-color="#5D47F4"/>
			<stop offset="0.51" stop-color="#5855F5"/>
			<stop offset="0.62" stop-color="#506AF6"/>
			<stop offset="0.72" stop-color="#4684F8"/>
			<stop offset="0.82" stop-color="#3AA5F9"/>
			<stop offset="0.91" stop-color="#2BCCFC"/>
			<stop offset="0.99" stop-color="#1AF8FE"/>
			<stop offset="1" stop-color="#18FFFF"/>
		</linearGradient>
		<linearGradient id="paint7_linear_377_3401" x1="0.615112" y1="76.5918" x2="46.5842" y2="76.5918" gradientUnits="userSpaceOnUse">
			<stop stop-color="#623CF4"/>
			<stop offset="0.24" stop-color="#613EF4"/>
			<stop offset="0.39" stop-color="#5D47F4"/>
			<stop offset="0.51" stop-color="#5855F5"/>
			<stop offset="0.62" stop-color="#506AF6"/>
			<stop offset="0.72" stop-color="#4684F8"/>
			<stop offset="0.82" stop-color="#3AA5F9"/>
			<stop offset="0.91" stop-color="#2BCCFC"/>
			<stop offset="0.99" stop-color="#1AF8FE"/>
			<stop offset="1" stop-color="#18FFFF"/>
		</linearGradient>
		<linearGradient id="paint8_linear_377_3401" x1="46.5842" y1="76.5918" x2="92.5543" y2="76.5918" gradientUnits="userSpaceOnUse">
			<stop stop-color="#623CF4"/>
			<stop offset="0.24" stop-color="#613EF4"/>
			<stop offset="0.39" stop-color="#5D47F4"/>
			<stop offset="0.51" stop-color="#5855F5"/>
			<stop offset="0.62" stop-color="#506AF6"/>
			<stop offset="0.72" stop-color="#4684F8"/>
			<stop offset="0.82" stop-color="#3AA5F9"/>
			<stop offset="0.91" stop-color="#2BCCFC"/>
			<stop offset="0.99" stop-color="#1AF8FE"/>
			<stop offset="1" stop-color="#18FFFF"/>
		</linearGradient>
		<linearGradient id="paint9_linear_377_3401" x1="263.231" y1="44.4508" x2="355.318" y2="44.4508" gradientUnits="userSpaceOnUse">
			<stop offset="0.23" stop-color="#5168F6"/>
			<stop offset="0.36" stop-color="#4094F8"/>
			<stop offset="0.49" stop-color="#31BAFA"/>
			<stop offset="0.62" stop-color="#26D8FC"/>
			<stop offset="0.76" stop-color="#1EEDFD"/>
			<stop offset="0.88" stop-color="#19FAFE"/>
			<stop offset="1" stop-color="#18FFFF"/>
		</linearGradient>
		<linearGradient id="paint10_linear_377_3401" x1="237.175" y1="53.5917" x2="291.538" y2="53.5917" gradientUnits="userSpaceOnUse">
			<stop stop-color="#623CF4"/>
			<stop offset="0.2" stop-color="#603EF4"/>
			<stop offset="0.35" stop-color="#5D48F4"/>
			<stop offset="0.48" stop-color="#5758F5"/>
			<stop offset="0.6" stop-color="#4E6EF6"/>
			<stop offset="0.71" stop-color="#438BF8"/>
			<stop offset="0.82" stop-color="#36AEFA"/>
			<stop offset="0.92" stop-color="#26D7FC"/>
			<stop offset="1" stop-color="#18FFFF"/>
		</linearGradient>
		<linearGradient id="paint11_linear_377_3401" x1="237.175" y1="58.5593" x2="291.538" y2="58.5593" gradientUnits="userSpaceOnUse">
			<stop stop-color="#623CF4"/>
			<stop offset="0.2" stop-color="#603EF4"/>
			<stop offset="0.35" stop-color="#5D48F4"/>
			<stop offset="0.48" stop-color="#5758F5"/>
			<stop offset="0.6" stop-color="#4E6EF6"/>
			<stop offset="0.71" stop-color="#438BF8"/>
			<stop offset="0.82" stop-color="#36AEFA"/>
			<stop offset="0.92" stop-color="#26D7FC"/>
			<stop offset="1" stop-color="#18FFFF"/>
		</linearGradient>
		<linearGradient id="paint12_linear_377_3401" x1="237.175" y1="65.1322" x2="291.538" y2="65.1322" gradientUnits="userSpaceOnUse">
			<stop stop-color="#623CF4"/>
			<stop offset="0.2" stop-color="#603EF4"/>
			<stop offset="0.35" stop-color="#5D48F4"/>
			<stop offset="0.48" stop-color="#5758F5"/>
			<stop offset="0.6" stop-color="#4E6EF6"/>
			<stop offset="0.71" stop-color="#438BF8"/>
			<stop offset="0.82" stop-color="#36AEFA"/>
			<stop offset="0.92" stop-color="#26D7FC"/>
			<stop offset="1" stop-color="#18FFFF"/>
		</linearGradient>
		<linearGradient id="paint13_linear_377_3401" x1="237.175" y1="61.9382" x2="291.538" y2="61.9382" gradientUnits="userSpaceOnUse">
			<stop stop-color="#623CF4"/>
			<stop offset="0.2" stop-color="#603EF4"/>
			<stop offset="0.35" stop-color="#5D48F4"/>
			<stop offset="0.48" stop-color="#5758F5"/>
			<stop offset="0.6" stop-color="#4E6EF6"/>
			<stop offset="0.71" stop-color="#438BF8"/>
			<stop offset="0.82" stop-color="#36AEFA"/>
			<stop offset="0.92" stop-color="#26D7FC"/>
			<stop offset="1" stop-color="#18FFFF"/>
		</linearGradient>
		<linearGradient id="paint14_linear_377_3401" x1="226.904" y1="37.6777" x2="303.705" y2="38.4629" gradientUnits="userSpaceOnUse">
			<stop stop-color="#623CF4"/>
			<stop offset="0.2" stop-color="#603EF4"/>
			<stop offset="0.35" stop-color="#5D48F4"/>
			<stop offset="0.48" stop-color="#5758F5"/>
			<stop offset="0.6" stop-color="#4E6EF6"/>
			<stop offset="0.71" stop-color="#438BF8"/>
			<stop offset="0.82" stop-color="#36AEFA"/>
			<stop offset="0.92" stop-color="#26D7FC"/>
			<stop offset="1" stop-color="#18FFFF"/>
		</linearGradient>
		<clipPath id="clip0_377_3401">
			<rect width="322" height="106" fill="white"/>
		</clipPath>
	</defs>
</svg>
